<?xml version="1.0" encoding="utf-8"?>
<svg width="800px" height="800px" viewBox="0 0 24 24" fill="none" xmlns="http://www.w3.org/2000/svg">
<path d="M9.16992 14C9.58176 15.1652 10.693 16 11.9992 16C13.3054 16 14.4167 15.1652 14.8285 14M9 10H9.009M15 10H15.009M5 10C5 6.13401 8.13401 3 12 3C15.866 3 19 6.13401 19 10V21L18.1828 20.4552C17.4052 19.9368 17.0165 19.6777 16.605 19.6045C16.2421 19.54 15.8685 19.577 15.5253 19.7114C15.1362 19.8638 14.8058 20.1942 14.145 20.855V20.855C14.0649 20.9351 13.9351 20.935 13.8549 20.855C13.4039 20.4052 13.1548 20.1686 12.888 20.0364C12.3285 19.7591 11.6715 19.7591 11.112 20.0364C10.8452 20.1686 10.5961 20.4052 10.1451 20.855C10.0649 20.935 9.93508 20.9351 9.855 20.855V20.855C9.19423 20.1942 8.86384 19.8638 8.47469 19.7114C8.13152 19.577 7.75788 19.54 7.39501 19.6045C6.98352 19.6777 6.59475 19.9368 5.81722 20.4552L5 21V10Z" stroke="#E30A17" stroke-width="2" stroke-linecap="round" stroke-linejoin="round"/>
</svg>