<?xml version="1.0" encoding="UTF-8" standalone="no"?>
<!-- Created with Inkscape (http://www.inkscape.org/) -->

<svg
   xmlns:dc="http://purl.org/dc/elements/1.1/"
   xmlns:cc="http://creativecommons.org/ns#"
   xmlns:rdf="http://www.w3.org/1999/02/22-rdf-syntax-ns#"
   xmlns:svg="http://www.w3.org/2000/svg"
   xmlns="http://www.w3.org/2000/svg"
   xmlns:sodipodi="http://sodipodi.sourceforge.net/DTD/sodipodi-0.dtd"
   xmlns:inkscape="http://www.inkscape.org/namespaces/inkscape"
   width="280"
   height="58.893154"
   id="svg3196"
   version="1.1"
   inkscape:version="0.91 r13725"
   sodipodi:docname="logo.svg">
  <defs
     id="defs3198" />
  <sodipodi:namedview
     id="base"
     pagecolor="#ffffff"
     bordercolor="#666666"
     borderopacity="1.0"
     inkscape:pageopacity="0.0"
     inkscape:pageshadow="2"
     inkscape:zoom="1.979899"
     inkscape:cx="237.63767"
     inkscape:cy="-10.656494"
     inkscape:document-units="px"
     inkscape:current-layer="layer1"
     showgrid="false"
     fit-margin-top="0"
     fit-margin-left="0"
     fit-margin-right="0"
     fit-margin-bottom="0"
     inkscape:window-width="1920"
     inkscape:window-height="1135"
     inkscape:window-x="0"
     inkscape:window-y="0"
     inkscape:window-maximized="1">
    <inkscape:grid
       type="xygrid"
       id="grid3007"
       empspacing="5"
       visible="true"
       enabled="true"
       snapvisiblegridlinesonly="true"
       originx="-29.736793"
       originy="-26.978167" />
  </sodipodi:namedview>
  <metadata
     id="metadata3201">
    <rdf:RDF>
      <cc:Work
         rdf:about="">
        <dc:format>image/svg+xml</dc:format>
        <dc:type
           rdf:resource="http://purl.org/dc/dcmitype/StillImage" />
        <dc:title></dc:title>
      </cc:Work>
    </rdf:RDF>
  </metadata>
  <g
     inkscape:label="Layer 1"
     inkscape:groupmode="layer"
     id="layer1"
     transform="translate(-185.7657,-476.7142)">
    <g
       id="g3041"
       transform="matrix(0.47036927,0,0,0.47036927,124.51409,270.38441)">
      <g
         transform="matrix(0.92207596,0,0,0.92207596,184.67532,-114.89545)"
         id="g3131">
        <g
           id="g3128">
          <rect
             ry="20"
             y="622.58551"
             x="-28.971081"
             height="90"
             width="90"
             id="rect3126"
             style="fill:#e6e6e6;fill-opacity:1;stroke:none" />
        </g>
        <path
           d="m 26.419132,622.45662 c 4.609198,2.56165 8.344228,5.95018 10.038141,9.37396 1.732566,3.49297 2.380506,5.19046 3.092104,8.10634 0.556926,2.24765 0.61606,3.18946 0.430415,5.86235 -0.154858,2.49065 -0.08908,3.46486 0.281982,4.49758 0.773471,2.15654 3.031111,5.22089 5.877446,7.98491 2.567908,2.521 2.661691,2.6754 2.661691,4.01187 0,1.15416 -0.185175,1.61079 -0.989505,2.49159 -0.525954,0.60749 -1.550578,1.36465 -2.231245,1.72913 -0.71158,0.33409 -1.63854,0.97481 -2.102591,1.36965 l -0.836118,0.78683 0.742111,1.39881 c 0.43311,0.75931 0.776738,1.73007 0.776738,2.18568 0,0.75933 -0.835698,1.91353 -1.578207,2.15649 -0.278428,0.0909 -0.278428,0.27171 0,0.75767 0.618787,1.15422 0.370514,1.9786 -0.836108,3.13277 -1.516012,1.39716 -1.699726,2.09433 -1.142842,4.70642 1.206612,5.55839 -0.155491,7.89459 -4.981979,8.68431 -1.949111,0.33412 -2.911833,0.30637 -8.821108,-0.42257 -7.796528,-0.97197 -8.659909,-1.00096 -9.340577,-0.27199 -0.74253,0.78971 -3.660686,6.68029 -4.155739,9.62651 -0.553422,3.22994 -3.5984466,12.45999 -3.6363132,12.57477 l 32.6178012,0 c 11.505113,0 20.763996,-9.0898 20.763996,-20.38479 l 0,-49.97355 c 0,-11.29497 -9.258883,-20.38474 -20.763996,-20.38474 l -15.866097,0 z m -55.801057,41.02697 0,29.33132 c 0,3.60087 0.947002,6.97344 2.602302,9.9034 0.267395,-0.51405 1.449562,-3.91472 1.449562,-3.91472 0.32846,-1.24477 0.494217,-2.21597 1.36052,-4.34214 1.918181,-4.8294 4.704931,-13.15213 4.704931,-14.1241 0,-0.39487 -0.278099,-1.52095 -0.618438,-2.46253 -1.082828,-3.12847 -3.374005,-6.68252 -7.767291,-12.08902 -0.648614,-0.79251 -1.211168,-1.55105 -1.731586,-2.30221 z"
           id="rect3498-3-2-5-9-1-3-8-4-4-2-3-6-9-4-8"
           inkscape:connector-curvature="0"
           style="fill:#333333" />
      </g>
      <ellipse
         transform="matrix(0.92207596,0,0,0.92207596,92.141025,201.63852)"
         ry="6.8882585"
         rx="7.2181883"
         cy="308.47171"
         cx="81.308365"
         id="path4321-62-7"
         style="fill:#4d6e90;fill-opacity:1;stroke:none" />
      <ellipse
         transform="matrix(0.92207596,0,0,0.92207596,90.743868,198.8442)"
         ry="6.0682278"
         rx="6.35888"
         cy="291.90704"
         cx="95.91658"
         id="path4321-7-8"
         style="fill:#4d6e90;fill-opacity:1;stroke:none" />
      <ellipse
         transform="matrix(0.92207596,0,0,0.92207596,90.743868,198.8442)"
         ry="4.1001539"
         rx="4.2965407"
         cy="302.4035"
         cx="94.197998"
         id="path4321-78-1"
         style="fill:#4d6e90;fill-opacity:1;stroke:none" />
      <ellipse
         transform="matrix(0.92207596,0,0,0.92207596,90.743868,198.8442)"
         ry="4.7561784"
         rx="4.9839873"
         cy="289.74374"
         cx="108.97807"
         id="path4321-71-0"
         style="fill:#4d6e90;fill-opacity:1;stroke:none" />
      <ellipse
         transform="matrix(0.92207596,0,0,0.92207596,90.743868,198.8442)"
         ry="3.7721412"
         rx="3.952817"
         cy="297.4169"
         cx="85.311813"
         id="path4321-1-0"
         style="fill:#4d6e90;fill-opacity:1;stroke:none" />
      <ellipse
         transform="matrix(0.92207596,0,0,0.92207596,90.743868,198.8442)"
         ry="6.0682278"
         rx="6.35888"
         cy="331.33109"
         cx="93.166824"
         id="path4321-87-7"
         style="fill:#4d6e90;fill-opacity:1;stroke:none" />
      <ellipse
         transform="matrix(0.92207596,0,0,0.92207596,90.743868,198.8442)"
         ry="3.7721412"
         rx="3.952817"
         cy="342.36121"
         cx="96.844162"
         id="path4321-2-6"
         style="fill:#4d6e90;fill-opacity:1;stroke:none" />
      <ellipse
         transform="matrix(0.92207596,0,0,0.92207596,106.5783,191.3927)"
         ry="6.0682278"
         rx="6.35888"
         cy="322.7402"
         cx="83.542564"
         id="path4321-786-0"
         style="fill:#4d6e90;fill-opacity:1;stroke:none" />
      <ellipse
         transform="matrix(0.92207596,0,0,0.92207596,90.743868,198.8442)"
         ry="5.9042215"
         rx="6.1870179"
         cy="293.71115"
         cx="121.86769"
         id="path4321-09-19"
         style="fill:#4d6e90;fill-opacity:1;stroke:none" />
      <ellipse
         transform="matrix(0.92207596,0,0,0.92207596,90.743868,198.8442)"
         inkscape:transform-center-y="0.67809276"
         inkscape:transform-center-x="-1.271435"
         ry="1.9272653"
         rx="2.0195763"
         cy="349.96042"
         cx="92.576775"
         id="path4321-2-2-2"
         style="fill:#4d6e90;fill-opacity:1;stroke:none" />
    </g>
    <g
       id="g4705"
       transform="matrix(0.48943574,0,0,0.48943574,817.31286,950.36428)"
       style="fill:#f2f2f2;fill-opacity:1">
      <path
         sodipodi:nodetypes="ccssscccsscscc"
         d="m -1042.8895,-868.78764 0,-45.66552 c 0.1468,-22.172 -10.7189,-33.18459 -32.8909,-33.18459 l -22.2196,0 c -4,0 -11.1119,4 -11.1119,12 l 0,66.85011 19.8227,0 0,-52.85011 c 0,-6 1.0648,-8.80457 5.6017,-8.88255 2.4339,-0.0418 5.9063,0.0388 7.6134,0.0625 8.6623,0.12026 13.0683,3.96421 13.5088,12.04011 l 0,39.93897 c 0,6.16705 3.2303,9.25057 9.691,9.69108 z"
         style="font-style:normal;font-variant:normal;font-weight:normal;font-stretch:normal;font-size:146.8344574px;line-height:125%;font-family:'Harabara Mais Demo';-inkscape-font-specification:'Harabara Mais Demo';letter-spacing:0px;word-spacing:0px;fill:#f2f2f2;fill-opacity:1;stroke:none"
         id="path4501-5-7"
         inkscape:connector-curvature="0" />
      <path
         sodipodi:nodetypes="sssssscscs"
         d="m -981.32112,-947.63775 c -23.49348,0 -35.24008,13.36194 -35.24008,40.37948 0,26.72387 11.7466,40.23264 35.24008,40.23264 23.49353,0 35.38713,-13.50877 35.38713,-40.23264 0,-27.01754 -11.8936,-40.37948 -35.38713,-40.37948 z m 0,17.17963 c 9.9848,0 14.97713,7.48856 14.97713,22.61251 -0.1468,15.41762 -5.13923,23.34668 -15.12393,23.34668 -9.9848,0 -15.124,-7.63539 -15.2708,-22.75934 0,-15.41762 5.1392,-23.19985 15.4176,-23.19985 z"
         style="font-style:normal;font-variant:normal;font-weight:normal;font-stretch:normal;font-size:146.8344574px;line-height:125%;font-family:'Harabara Mais Demo';-inkscape-font-specification:'Harabara Mais Demo';letter-spacing:0px;word-spacing:0px;fill:#f2f2f2;fill-opacity:1;stroke:none"
         id="path4503-5-2"
         inkscape:connector-curvature="0" />
      <path
         sodipodi:nodetypes="ccssccscc"
         d="m -920.53429,-868.78764 19.8227,0 0,-40.37948 c 0,-11.30625 5.43293,-17.0328 16.29863,-17.0328 l 6.6076,0 0,-20.26315 -2.7899,0 c -25.98973,0 -39.35163,12.48093 -39.93903,37.58962 z"
         style="font-style:normal;font-variant:normal;font-weight:normal;font-stretch:normal;font-size:146.8344574px;line-height:125%;font-family:'Harabara Mais Demo';-inkscape-font-specification:'Harabara Mais Demo';letter-spacing:0px;word-spacing:0px;fill:#f2f2f2;fill-opacity:1;stroke:none"
         id="path4505-8-2"
         inkscape:connector-curvature="0" />
      <path
         inkscape:connector-curvature="0"
         id="path3579-0-3-6-4-9"
         style="font-style:normal;font-variant:normal;font-weight:normal;font-stretch:normal;font-size:140.38897705px;line-height:125%;font-family:'Harabara Mais Demo';-inkscape-font-specification:'Harabara Mais Demo';letter-spacing:0px;word-spacing:0px;fill:#f2f2f2;fill-opacity:1;stroke:none"
         d="m -821.99999,-883.52015 c -6.10612,0 -14.04837,-2.90769 -14.48452,-9.01382 0,-5.66998 3.92538,-9.30459 11.63073,-10.75842 5.66999,-1.16308 10.90381,-2.76231 15.41072,-4.6523 l 0,12.30694 c 0,10.9038 -1.79849,12.1176 -12.55693,12.1176 z m -0.23688,-47.97678 c 7.99614,0 12.0669,2.18078 12.50304,6.54231 0,4.21613 -4.21614,6.68766 -12.50304,7.70534 -19.48147,1.89 -32.85682,6.83306 -33.29296,25.29685 0,17.00995 11.52984,24.31468 31.2576,24.13377 10.27224,0.18091 14.94641,0.18091 20.94641,0.18091 12.0988,0 12.63782,-7.55806 12.63782,-13.67938 0.0656,-11.90968 4.1e-4,-7.83291 0,-18.63144 l -5e-4,-13.08456 0,-13.08458 c -0.21807,-7.12382 -3.01672,-12.43035 -8.4141,-15.95591 -5.39739,-3.52557 -13.39351,-5.27018 -24.00656,-5.27018 -17.73687,0 -27.76839,6.97844 -30.09453,21.22609 l 19.33609,0 c 1.0177,-3.6346 4.79768,-5.37922 11.63073,-5.37922 z"
         sodipodi:nodetypes="scccsssccccccsccssccs" />
    </g>
  </g>
</svg>
