<?xml version="1.0" encoding="iso-8859-1"?>
<!-- Uploaded to: SVG Repo, www.svgrepo.com, Generator: SVG Repo Mixer Tools -->
<svg version="1.1" id="Layer_1" xmlns="http://www.w3.org/2000/svg" xmlns:xlink="http://www.w3.org/1999/xlink" 
	 viewBox="0 0 512 512" xml:space="preserve">
<path style="fill:#67B780;" d="M511.344,274.266C511.77,268.231,512,262.143,512,256C512,114.615,397.385,0,256,0S0,114.615,0,256
	c0,117.769,79.53,216.949,187.809,246.801L511.344,274.266z"/>
<path style="fill:#178F3C;" d="M511.344,274.266L314.991,77.913L119.096,434.087l68.714,68.714C209.522,508.787,232.385,512,256,512
	C391.243,512,501.976,407.125,511.344,274.266z"/>
<polygon style="fill:#FFFFFF;" points="278.328,333.913 255.711,77.913 119.096,77.913 119.096,311.652 "/>
<polygon style="fill:#E8E6E6;" points="392.904,311.652 392.904,155.826 337.252,133.565 314.991,77.913 255.711,77.913 
	256.067,333.913 "/>
<polygon style="fill:#FFFFFF;" points="314.991,155.826 314.991,77.913 392.904,155.826 "/>
<rect x="119.096" y="311.652" style="fill:#0A3E1A;" width="273.809" height="122.435"/>
<g>
	<path style="fill:#FFFFFF;" d="M202.11,357.209v42.153h-13.471v-42.153h-15.816v-10.898h45.256v10.898H202.11z"/>
	<path style="fill:#FFFFFF;" d="M225.726,399.362v-52.975h13.471v52.975H225.726z"/>
	<path style="fill:#FFFFFF;" d="M265.157,356.982v12.26h23.763v10.596h-23.763v19.525h-13.471v-52.975h39.277v10.595h-25.806
		V356.982z"/>
	<path style="fill:#FFFFFF;" d="M312.763,356.982v12.26h23.763v10.596h-23.763v19.525h-13.471v-52.975h39.277v10.595h-25.806
		V356.982z"/>
</g>
</svg>