<?xml version="1.0" encoding="utf-8"?>
<!-- Generator: Adobe Illustrator 22.0.1, SVG Export Plug-In . SVG Version: 6.00 Build 0)  -->
<svg version="1.1" id="Layer_1" xmlns="http://www.w3.org/2000/svg" xmlns:xlink="http://www.w3.org/1999/xlink" x="0px" y="0px"
	 viewBox="0 0 65 46" style="enable-background:new 0 0 65 46;" xml:space="preserve">
<style type="text/css">
	.st0{fill:#009BA1;}
</style>
<g>
	<path class="st0" d="M28.5,16.5c0.4-0.1,1.2,0.2,1.2,0.2s0.6,0.6,1.2,0.2c0-1.2,0-1.8-1-1.8C28.8,15.2,28.2,16.7,28.5,16.5z"/>
	<path class="st0" d="M42.5,14.5C42.4,14.5,42.4,14.5,42.5,14.5c-0.1,0-0.3,0-0.3,0c-0.1,0-0.3,0-0.4,0.1c0.3,0.4,0.4,1,0.2,1.5
		c-0.3,0.8-1.1,1.1-1.9,0.9c0,0,0,0,0,0c-0.4-0.1-0.7-0.4-0.9-0.8c-0.6,0.7-0.9,1.6-0.9,2.6c0,2.2,1.8,4.1,4,4.1c0,0,0,0,0,0
		c1.3,0,2.6-0.7,3.3-1.8c0.5-0.7,0.7-1.5,0.7-2.3C46.5,16.4,44.7,14.6,42.5,14.5z"/>
	<path class="st0" d="M56,16.6c-0.4,0-0.9,0-1.3,0.1c0-0.1,0-0.1-0.1-0.2c-0.1-0.2-0.1-0.3-0.1-0.5c-0.1-0.3-0.2-0.7-0.3-1
		s-0.2-0.6-0.4-1c-0.1-0.3-0.2-0.6-0.4-0.9c-0.2-0.3-0.3-0.6-0.5-0.9c-0.2-0.3-0.3-0.6-0.5-0.9s-0.4-0.6-0.6-0.9l-0.6-0.8
		c-0.2-0.3-0.4-0.6-0.6-0.8C50.4,8.6,50.2,8.3,50,8c-0.2-0.2-0.5-0.5-0.7-0.7c-0.3-0.2-0.5-0.5-0.7-0.7C48.3,6.4,48,6.2,47.8,6
		S47.2,5.5,47,5.3c-0.3-0.2-0.6-0.4-0.9-0.6c-0.3-0.2-0.6-0.4-0.9-0.6C45,4,44.7,3.8,44.4,3.7l-0.9-0.5c-0.3-0.2-0.6-0.3-1-0.4
		c-0.3-0.1-0.7-0.3-1-0.4c-0.3-0.1-0.7-0.2-1-0.4c-0.4-0.1-0.7-0.2-1-0.3c-0.3-0.1-0.7-0.2-1-0.3s-0.7-0.2-1-0.2
		C37.1,1.1,36.7,1,36.4,1s-0.7-0.1-1.1-0.1c-0.4-0.1-0.8-0.1-1.1-0.1c-0.4,0-0.7,0-1.1,0h-0.2c-12,0.1-21.8,8.6-22.4,20
		c0,0.3,0,0.6,0,0.8V22c0,0.2,0,0.5,0,0.7c0,0.2,0,0.4,0,0.6h-2c-0.1-0.2-0.2-0.4-0.3-0.6C8,22.4,7.9,22.2,7.7,22
		c-0.2-0.2-0.4-0.4-0.6-0.5c-0.2-0.1-0.5-0.3-0.8-0.4c-0.3-0.1-0.6-0.1-0.9-0.1H5.4c-0.6,0-1.2,0.2-1.7,0.6
		c-0.3,0.2-0.6,0.5-0.9,0.9c-0.3,0.5-0.5,1.1-0.6,1.7v0.1c0,0.3,0,0.6,0.1,0.9c0.1,0.3,0.2,0.5,0.4,0.8c0.1,0.2,0.3,0.4,0.5,0.6
		c0.2,0.2,0.4,0.4,0.6,0.5c0.3,0.1,0.5,0.2,0.8,0.3c0.3,0.1,0.5,0.1,0.8,0.1c0.1,0,0.1,0,0.2,0h0.1c1.2-0.1,2.2-0.9,2.7-2h2.3
		c0,0,0.1,0.6,0.1,0.6c0.1,0.2,0.1,0.4,0.1,0.6c0.1,0.4,0.2,0.9,0.3,1.3c0.3,0.8,0.5,1.6,0.9,2.4c0.4,0.8,0.8,1.5,1.2,2.3
		c0.4,0.7,0.9,1.4,1.5,2.1c0.6,0.7,1.2,1.4,1.8,2c0.5,0.5,1,0.9,1.5,1.3c0.3,0.2,0.6,0.5,0.9,0.7s0.6,0.4,1,0.7
		c0.3,0.2,0.7,0.4,1,0.6c0.3,0.2,0.7,0.4,1,0.6c0.4,0.2,0.7,0.4,1.1,0.5c0.4,0.2,0.8,0.3,1.2,0.5c0.4,0.1,0.8,0.3,1.2,0.4
		c0.3,0.1,0.7,0.2,1,0.3l0.2,0.1c0.4,0.1,0.9,0.2,1.3,0.4c0.4,0.1,0.9,0.2,1.3,0.2c0.1,0,0.3,0.1,0.4,0.1c0.1,0.3,0.2,0.6,0.4,0.8
		c0.2,0.3,0.5,0.6,0.8,0.9c0.1,0.1,0.2,0.2,0.3,0.2c0,0,0,0,0.1,0c0.5,0.3,1,0.4,1.5,0.4c0.4,0,0.7-0.1,1-0.2c0.1,0,0.3-0.1,0.4-0.2
		c0,0,0,0,0.1,0c0.1,0,0.1-0.1,0.1-0.1c0.7-0.4,1.2-1,1.4-1.8c0,0,0-0.1,0-0.1c0,0,0-0.1,0-0.1c0.1-0.3,0.1-0.5,0.1-0.8
		c0-0.9-0.4-1.7-1-2.3c-0.3-0.3-0.7-0.5-1.1-0.6c0,0,0,0,0,0v-5.5h-1.7c-0.5,0-1-0.1-1.5-0.2c-0.4-0.1-0.9-0.2-1.3-0.3
		c-0.4-0.1-0.8-0.2-1.2-0.4c-0.4-0.2-0.7-0.3-1.1-0.6c-0.4-0.2-0.7-0.4-1-0.6c-0.3-0.2-0.6-0.5-0.9-0.7s-0.6-0.5-0.8-0.8
		c-0.3-0.3-0.5-0.6-0.7-0.9c-0.2-0.3-0.4-0.6-0.7-1c-0.2-0.3-0.4-0.7-0.6-1.1c-0.2-0.4-0.3-0.8-0.4-1.2c-0.1-0.2-0.1-0.4-0.1-0.6
		h11.2v-2.1H21.7v-0.2c0-0.6,0.1-1.2,0.2-1.8c0.1-0.6,0.3-1.1,0.5-1.6c1.1-2.5,3.1-4.5,5.6-5.6c0.6-0.2,1.1-0.4,1.7-0.6
		c0.7-0.2,1.3-0.3,2-0.4c0.3,0,0.6-0.1,0.9-0.1h1.2c0,0,0.1-0.4,0.1-0.6c0,0,0-0.1,0-0.1c0-0.1,0.1-0.3,0.2-0.4
		c0.1-0.2,0.2-0.3,0.2-0.5c0-0.1,0.1-0.1,0.1-0.2c0,0,0-0.1,0.1-0.1c0,0,0,0,0-0.1s0,0,0-0.1c0.2-0.4,1.2-1.5,3-2.3
		c0.7-0.3,1.4-0.5,2.2-0.6c0.6-0.1,1.2-0.1,1.7-0.1c0.2,0,0.3,0,0.5,0c0.4,0,0.7,0.1,1,0.1c0.4,0.1,0.9,0.2,1.3,0.3
		c0.4,0.1,0.8,0.3,1.2,0.5c0.4,0.2,0.7,0.4,1,0.6c0.3,0.2,0.6,0.5,0.9,0.7c0.3,0.2,0.6,0.5,0.8,0.8c0.3,0.3,0.5,0.6,0.7,0.9
		c0.2,0.3,0.5,0.6,0.7,1c0.2,0.4,0.4,0.7,0.6,1c0.2,0.4,0.4,0.7,0.5,1.1c0.2,0.4,0.3,0.8,0.4,1.2c0.1,0.3,0.2,0.6,0.2,0.9
		s0.1,0.6,0.2,1c-2.9,2.6-3.2,7-0.7,9.9c2.6,2.9,7,3.2,9.9,0.7c2.9-2.6,3.2-7,0.7-9.9C60.1,17.4,58.1,16.5,56,16.6z M5.5,25.5
		C5.5,25.5,5.5,25.5,5.5,25.5c-0.7,0-1.3-0.6-1.3-1.3s0.6-1.3,1.3-1.3s1.3,0.6,1.3,1.3C6.8,24.9,6.2,25.5,5.5,25.5z M32.8,40.9
		c0.7,0,1.3,0.6,1.3,1.3c0,0.7-0.6,1.3-1.3,1.3s-1.3-0.6-1.3-1.3S32.1,40.9,32.8,40.9z M37.7,5.3c-0.6,0.2-1.3,0.4-1.8,0.7
		c-1.5,0.8-2.7,2-3.5,3.5c-0.4,0.7-0.6,1.2-0.6,1.3v0L30.9,11c-0.5,0.1-0.9,0.1-1.3,0.2c-0.5,0.1-1.1,0.3-1.6,0.5
		c-0.7,0.3-1.4,0.6-2.1,1c-2,1.2-3.7,2.8-4.8,4.8c-0.4,0.6-0.7,1.3-0.9,2c-0.2,0.5-0.3,1-0.4,1.5c-0.1,0.4-0.1,0.9-0.2,1.3
		c0,0.3-0.1,0.7-0.1,1v0.2c0,0.5,0,1,0.1,1.5c0.1,0.5,0.2,0.9,0.3,1.3s0.2,0.8,0.4,1.2c0.2,0.4,0.3,0.8,0.5,1.1
		c0.2,0.4,0.4,0.7,0.6,1c0.2,0.3,0.4,0.7,0.7,1c0.2,0.3,0.5,0.6,0.7,0.9c0.3,0.3,0.5,0.5,0.8,0.8c0.3,0.3,0.6,0.5,0.9,0.7
		c0.3,0.2,0.6,0.4,1,0.7s0.7,0.4,1,0.6c0.4,0.2,0.7,0.4,1.1,0.5c0.4,0.2,0.8,0.3,1.2,0.4c0.4,0.1,0.9,0.2,1.3,0.3
		c0.5,0.1,0.9,0.1,1.4,0.2v3.5h0c-0.4,0.1-0.7,0.3-1,0.6c-4-0.4-7.9-2-10.9-4.6c-0.2-0.2-0.4-0.4-0.6-0.6c-7-6.5-7.4-17.5-1-24.5
		c0.3-0.3,0.6-0.6,1-1c3.2-3,7.5-4.8,12.1-5.2c0.1,0,0.3,0,0.4,0c0.2,0,0.4,0,0.6,0s0.4,0,0.6,0c0.2,0,0.4,0,0.6,0
		c0.4,0,0.7,0,1,0.1l1,0.1c0.3,0,0.7,0.1,1,0.1c0.3,0.1,0.6,0.1,0.9,0.2c0.3,0.1,0.6,0.1,0.9,0.2c0.4,0.1,0.7,0.2,1.1,0.3
		C38.8,5,38.2,5.1,37.7,5.3z M56,27.3c-2,0-3.6-1.6-3.6-3.6c0-2,1.6-3.6,3.6-3.6s3.6,1.6,3.6,3.6C59.6,25.7,58,27.3,56,27.3z"/>
</g>
</svg>
