<?xml version="1.0" encoding="utf-8"?>
<svg fill="#E30A17" height="800px" width="800px" version="1.1" id="Layer_1" xmlns="http://www.w3.org/2000/svg" xmlns:xlink="http://www.w3.org/1999/xlink" 
	 viewBox="0 0 256 256" xml:space="preserve">
<g>
	<circle cx="128" cy="128" r="40"/>
	<path d="M111.1,195.4c1.1-3.1-0.6-6.5-3.7-7.6h0c-3.1-1.1-6.5,0.6-7.6,3.7c-1.1,3.1,0.6,6.6,3.7,7.6c0.6,0.2,1.3,0.3,2,0.3
		C107.9,199.4,110.2,197.9,111.1,195.4z"/>
	<path d="M77.6,80.3c-2.6-2.1-6.4-1.6-8.4,1c-2.1,2.6-1.6,6.4,1,8.4c1.1,0.9,2.4,1.3,3.7,1.3c1.8,0,3.5-0.8,4.7-2.3
		C80.6,86.1,80.2,82.4,77.6,80.3z"/>
	<path d="M151,69L151,69c0.7,0.3,1.4,0.4,2.2,0.4c2.4,0,4.7-1.4,5.6-3.8c1.2-3.1-0.3-6.6-3.4-7.8c-3.1-1.2-6.6,0.3-7.8,3.4
		C146.4,64.3,147.9,67.8,151,69z"/>
	<path d="M67.6,162.2c-2.7,1.9-3.4,5.6-1.5,8.4c1.2,1.7,3,2.6,5,2.6c1.2,0,2.4-0.3,3.4-1c2.7-1.9,3.4-5.6,1.5-8.3
		C74.1,161,70.4,160.3,67.6,162.2z"/>
	<path d="M146.9,188.4c-3.2,1-4.9,4.3-4,7.5c0.8,2.6,3.2,4.2,5.7,4.2c0.6,0,1.2-0.1,1.8-0.3c3.2-1,4.9-4.3,4-7.5
		C153.4,189.2,150,187.5,146.9,188.4z"/>
	<path d="M110,67.2c0.5,0,1.1-0.1,1.6-0.2c3.2-0.9,5.1-4.2,4.2-7.4c-0.9-3.2-4.2-5.1-7.4-4.2c-3.2,0.9-5.1,4.2-4.2,7.4
		C104.9,65.4,107.3,67.2,110,67.2z"/>
	<circle cx="197.4" cy="128" r="6"/>
	<path d="M187.5,164.3c-2.7-2-6.4-1.4-8.4,1.3c-2,2.7-1.4,6.4,1.3,8.4c1.1,0.8,2.3,1.2,3.6,1.2c1.8,0,3.7-0.9,4.8-2.4
		C190.7,170,190.1,166.2,187.5,164.3z"/>
	<path d="M59.2,119.6c-3.3-0.1-6.1,2.5-6.2,5.8s2.5,6.1,5.8,6.2c0.1,0,0.1,0,0.2,0c3.2,0,5.9-2.5,6-5.8
		C65.1,122.5,62.5,119.7,59.2,119.6z"/>
	<path d="M191.7,87.6c-1.8-2.8-5.5-3.6-8.3-1.8c-2.8,1.8-3.6,5.5-1.8,8.3c1.1,1.8,3.1,2.8,5.1,2.8c1.1,0,2.2-0.3,3.2-0.9
		C192.6,94.1,193.5,90.4,191.7,87.6z"/>
	<path d="M226.1,183.8c-2.8-1.8-6.5-1-8.3,1.8c-1.8,2.8-1,6.5,1.8,8.3c1,0.7,2.1,1,3.2,1c2,0,3.9-1,5.1-2.8
		C229.7,189.3,228.9,185.5,226.1,183.8z"/>
	<path d="M222.7,73c1.1,0,2.2-0.3,3.3-1c2.8-1.8,3.6-5.5,1.8-8.3c-1.8-2.8-5.5-3.6-8.3-1.8c-2.8,1.8-3.6,5.5-1.8,8.3
		C218.8,72,220.7,73,222.7,73z"/>
	<path d="M240.6,121.8c-3.3,0-6,2.7-6,6c0,0.1,0,0.1,0,0.2c0,0,0,0.1,0,0.1c0,3.3,2.7,6,6,6c3.3,0,6-2.7,6-6c0,0,0-0.1,0-0.1
		s0-0.1,0-0.1C246.6,124.4,244,121.8,240.6,121.8z"/>
	<path d="M172.2,31c0.8,0.4,1.6,0.5,2.5,0.5c2.3,0,4.5-1.3,5.5-3.5c1.4-3,0-6.6-3-8c-3-1.4-6.6,0-7.9,3
		C167.9,26.1,169.2,29.6,172.2,31z"/>
	<path d="M54.4,49.1c1.4,0,2.8-0.5,3.9-1.5c2.5-2.2,2.8-6,0.6-8.5c-2.2-2.5-6-2.8-8.5-0.6c-2.5,2.2-2.8,6-0.6,8.5
		C51,48.4,52.7,49.1,54.4,49.1z"/>
	<path d="M18.5,154c-3.2,0.9-5,4.3-4.1,7.5c0.8,2.6,3.2,4.3,5.8,4.3c0.6,0,1.1-0.1,1.7-0.2c3.2-0.9,5-4.3,4.1-7.5
		C25,154.9,21.7,153.1,18.5,154z"/>
	<path d="M58.5,208.5c-2.5-2.2-6.3-1.9-8.5,0.6c-2.2,2.5-1.9,6.3,0.6,8.5c1.1,1,2.5,1.5,3.9,1.5c1.7,0,3.3-0.7,4.5-2.1
		C61.3,214.5,61,210.7,58.5,208.5z"/>
	<path d="M113.1,233.4c-3.3-0.5-6.3,1.8-6.8,5.1c-0.5,3.3,1.8,6.3,5.1,6.8c0.3,0,0.6,0.1,0.9,0.1c2.9,0,5.5-2.2,5.9-5.2
		C118.6,236.9,116.3,233.9,113.1,233.4z"/>
	<path d="M18.5,102.2c0.6,0.2,1.1,0.2,1.7,0.2c2.6,0,5-1.7,5.8-4.3c0.9-3.2-0.9-6.5-4.1-7.4c-3.2-0.9-6.5,0.9-7.4,4.1
		C13.5,97.9,15.3,101.3,18.5,102.2z"/>
	<path d="M172.5,224.9c-3,1.4-4.3,4.9-3,8c1,2.2,3.2,3.5,5.5,3.5c0.8,0,1.7-0.2,2.5-0.5c3-1.4,4.3-4.9,3-8
		C179,224.8,175.5,223.5,172.5,224.9z"/>
	<path d="M112,22.7c0.3,0,0.6,0,0.9-0.1c3.3-0.5,5.6-3.5,5.1-6.8c-0.5-3.3-3.5-5.6-6.8-5.1c-3.3,0.5-5.6,3.5-5.1,6.8
		C106.5,20.5,109,22.7,112,22.7z"/>
</g>
</svg>